STARTFONT 2.1
COMMENT Exported by Fony v1.3.6
FONT Leaf_n_6x12
SIZE 12 96 96
FONTBOUNDINGBOX 9 11 0 0
STARTPROPERTIES 6
COPYRIGHT ""
RESOLUTION_X 96
RESOLUTION_Y 96
FONT_ASCENT 12
FONT_DESCENT 0
DEFAULT_CHAR 0
ENDPROPERTIES
CHARS 128
STARTCHAR 032
ENCODING 32
SWIDTH 576 0
DWIDTH 8 0
BBX 0 0 0 0
BITMAP
ENDCHAR
STARTCHAR 033
ENCODING 33
SWIDTH 432 0
DWIDTH 6 0
BBX 5 5 0 0
BITMAP
D0
A8
A8
88
88
ENDCHAR
STARTCHAR 034
ENCODING 34
SWIDTH 432 0
DWIDTH 6 0
BBX 5 10 0 0
BITMAP
40
A0
80
C0
80
90
38
10
10
08
ENDCHAR
STARTCHAR 035
ENCODING 35
SWIDTH 432 0
DWIDTH 6 0
BBX 5 11 0 0
BITMAP
80
90
A0
C0
A0
90
00
D0
A8
A8
88
ENDCHAR
STARTCHAR 036
ENCODING 36
SWIDTH 432 0
DWIDTH 6 0
BBX 5 10 0 0
BITMAP
D0
A8
A8
88
00
20
00
20
20
20
ENDCHAR
STARTCHAR 037
ENCODING 37
SWIDTH 432 0
DWIDTH 6 0
BBX 5 12 0 0
BITMAP
D0
A8
A8
A8
00
F8
00
38
40
30
08
70
ENDCHAR
STARTCHAR 038
ENCODING 38
SWIDTH 432 0
DWIDTH 6 0
BBX 5 12 0 0
BITMAP
60
80
D0
B8
90
08
00
F8
00
D0
A8
88
ENDCHAR
STARTCHAR 039
ENCODING 39
SWIDTH 288 0
DWIDTH 4 0
BBX 3 5 0 7
BITMAP
60
60
E0
C0
80
ENDCHAR
STARTCHAR 040
ENCODING 40
SWIDTH 360 0
DWIDTH 5 0
BBX 4 10 0 2
BITMAP
60
90
90
60
00
60
90
80
90
60
ENDCHAR
STARTCHAR 041
ENCODING 41
SWIDTH 360 0
DWIDTH 5 0
BBX 4 10 0 2
BITMAP
60
90
90
60
00
70
40
60
40
40
ENDCHAR
STARTCHAR 042
ENCODING 42
SWIDTH 432 0
DWIDTH 6 0
BBX 5 7 0 1
BITMAP
68
98
88
78
08
88
70
ENDCHAR
STARTCHAR 043
ENCODING 43
SWIDTH 504 0
DWIDTH 7 0
BBX 6 6 0 3
BITMAP
30
30
FC
FC
30
30
ENDCHAR
STARTCHAR 044
ENCODING 44
SWIDTH 288 0
DWIDTH 4 0
BBX 3 4 0 0
BITMAP
60
60
60
C0
ENDCHAR
STARTCHAR 045
ENCODING 45
SWIDTH 504 0
DWIDTH 7 0
BBX 6 2 0 5
BITMAP
FC
FC
ENDCHAR
STARTCHAR 046
ENCODING 46
SWIDTH 216 0
DWIDTH 3 0
BBX 2 2 0 0
BITMAP
C0
C0
ENDCHAR
STARTCHAR 047
ENCODING 47
SWIDTH 432 0
DWIDTH 6 0
BBX 5 12 0 0
BITMAP
18
18
18
30
30
30
60
60
60
C0
C0
C0
ENDCHAR
STARTCHAR 048
ENCODING 48
SWIDTH 504 0
DWIDTH 7 0
BBX 6 12 0 0
BITMAP
78
FC
CC
CC
CC
CC
CC
CC
CC
CC
FC
78
ENDCHAR
STARTCHAR 049
ENCODING 49
SWIDTH 504 0
DWIDTH 7 0
BBX 6 12 0 0
BITMAP
30
70
F0
F0
30
30
30
30
30
30
FC
FC
ENDCHAR
STARTCHAR 050
ENCODING 50
SWIDTH 504 0
DWIDTH 7 0
BBX 6 12 0 0
BITMAP
78
FC
CC
0C
1C
38
70
E0
C0
C0
FC
FC
ENDCHAR
STARTCHAR 051
ENCODING 51
SWIDTH 504 0
DWIDTH 7 0
BBX 6 12 0 0
BITMAP
FC
FC
1C
38
70
78
1C
0C
0C
CC
FC
78
ENDCHAR
STARTCHAR 052
ENCODING 52
SWIDTH 504 0
DWIDTH 7 0
BBX 6 12 0 0
BITMAP
0C
1C
3C
7C
EC
CC
FC
FC
0C
0C
0C
0C
ENDCHAR
STARTCHAR 053
ENCODING 53
SWIDTH 504 0
DWIDTH 7 0
BBX 6 12 0 0
BITMAP
FC
FC
C0
C0
F8
FC
0C
0C
CC
CC
FC
78
ENDCHAR
STARTCHAR 054
ENCODING 54
SWIDTH 504 0
DWIDTH 7 0
BBX 6 12 0 0
BITMAP
78
FC
CC
C0
C0
F8
FC
CC
CC
CC
FC
78
ENDCHAR
STARTCHAR 055
ENCODING 55
SWIDTH 504 0
DWIDTH 7 0
BBX 6 12 0 0
BITMAP
FC
FC
0C
0C
18
18
30
30
60
60
60
60
ENDCHAR
STARTCHAR 056
ENCODING 56
SWIDTH 504 0
DWIDTH 7 0
BBX 6 12 0 0
BITMAP
78
FC
CC
CC
CC
78
CC
CC
CC
CC
FC
78
ENDCHAR
STARTCHAR 057
ENCODING 57
SWIDTH 504 0
DWIDTH 7 0
BBX 6 12 0 0
BITMAP
78
FC
CC
CC
CC
FC
7C
0C
0C
CC
FC
78
ENDCHAR
STARTCHAR 058
ENCODING 58
SWIDTH 216 0
DWIDTH 3 0
BBX 2 6 0 2
BITMAP
C0
C0
00
00
C0
C0
ENDCHAR
STARTCHAR 059
ENCODING 59
SWIDTH 216 0
DWIDTH 3 0
BBX 2 8 0 0
BITMAP
C0
C0
00
00
C0
C0
40
80
ENDCHAR
STARTCHAR 060
ENCODING 60
SWIDTH 504 0
DWIDTH 7 0
BBX 6 11 0 0
BITMAP
04
0C
1C
3C
7C
FC
7C
3C
1C
0C
04
ENDCHAR
STARTCHAR 061
ENCODING 61
SWIDTH 432 0
DWIDTH 6 0
BBX 5 6 0 2
BITMAP
F8
F8
00
00
F8
F8
ENDCHAR
STARTCHAR 062
ENCODING 62
SWIDTH 504 0
DWIDTH 7 0
BBX 6 11 0 0
BITMAP
80
C0
E0
F0
F8
FC
F8
F0
E0
C0
80
ENDCHAR
STARTCHAR 063
ENCODING 63
SWIDTH 360 0
DWIDTH 5 0
BBX 0 0 0 0
BITMAP
ENDCHAR
STARTCHAR 064
ENCODING 64
SWIDTH 360 0
DWIDTH 5 0
BBX 0 0 0 0
BITMAP
ENDCHAR
STARTCHAR 065
ENCODING 65
SWIDTH 360 0
DWIDTH 5 0
BBX 0 0 0 0
BITMAP
ENDCHAR
STARTCHAR 066
ENCODING 66
SWIDTH 360 0
DWIDTH 5 0
BBX 0 0 0 0
BITMAP
ENDCHAR
STARTCHAR 067
ENCODING 67
SWIDTH 360 0
DWIDTH 5 0
BBX 0 0 0 0
BITMAP
ENDCHAR
STARTCHAR 068
ENCODING 68
SWIDTH 360 0
DWIDTH 5 0
BBX 0 0 0 0
BITMAP
ENDCHAR
STARTCHAR 069
ENCODING 69
SWIDTH 576 0
DWIDTH 8 0
BBX 7 12 0 0
BITMAP
FE
FE
C0
C0
C0
F8
F8
C0
C0
C0
FE
FE
ENDCHAR
STARTCHAR 070
ENCODING 70
SWIDTH 360 0
DWIDTH 5 0
BBX 0 0 0 0
BITMAP
ENDCHAR
STARTCHAR 071
ENCODING 71
SWIDTH 360 0
DWIDTH 5 0
BBX 0 0 0 0
BITMAP
ENDCHAR
STARTCHAR 072
ENCODING 72
SWIDTH 360 0
DWIDTH 5 0
BBX 0 0 0 0
BITMAP
ENDCHAR
STARTCHAR 073
ENCODING 73
SWIDTH 360 0
DWIDTH 5 0
BBX 0 0 0 0
BITMAP
ENDCHAR
STARTCHAR 074
ENCODING 74
SWIDTH 360 0
DWIDTH 5 0
BBX 0 0 0 0
BITMAP
ENDCHAR
STARTCHAR 075
ENCODING 75
SWIDTH 360 0
DWIDTH 5 0
BBX 0 0 0 0
BITMAP
ENDCHAR
STARTCHAR 076
ENCODING 76
SWIDTH 360 0
DWIDTH 5 0
BBX 0 0 0 0
BITMAP
ENDCHAR
STARTCHAR 077
ENCODING 77
SWIDTH 360 0
DWIDTH 5 0
BBX 0 0 0 0
BITMAP
ENDCHAR
STARTCHAR 078
ENCODING 78
SWIDTH 576 0
DWIDTH 8 0
BBX 7 12 0 0
BITMAP
C6
C6
E6
E6
F6
F6
DE
DE
CE
CE
C6
C6
ENDCHAR
STARTCHAR 079
ENCODING 79
SWIDTH 360 0
DWIDTH 5 0
BBX 0 0 0 0
BITMAP
ENDCHAR
STARTCHAR 080
ENCODING 80
SWIDTH 360 0
DWIDTH 5 0
BBX 0 0 0 0
BITMAP
ENDCHAR
STARTCHAR 081
ENCODING 81
SWIDTH 360 0
DWIDTH 5 0
BBX 0 0 0 0
BITMAP
ENDCHAR
STARTCHAR 082
ENCODING 82
SWIDTH 360 0
DWIDTH 5 0
BBX 0 0 0 0
BITMAP
ENDCHAR
STARTCHAR 083
ENCODING 83
SWIDTH 576 0
DWIDTH 8 0
BBX 7 12 0 0
BITMAP
7C
FE
C6
C0
E0
78
3C
0E
06
C6
FE
7C
ENDCHAR
STARTCHAR 084
ENCODING 84
SWIDTH 360 0
DWIDTH 5 0
BBX 0 0 0 0
BITMAP
ENDCHAR
STARTCHAR 085
ENCODING 85
SWIDTH 360 0
DWIDTH 5 0
BBX 0 0 0 0
BITMAP
ENDCHAR
STARTCHAR 086
ENCODING 86
SWIDTH 360 0
DWIDTH 5 0
BBX 0 0 0 0
BITMAP
ENDCHAR
STARTCHAR 087
ENCODING 87
SWIDTH 576 0
DWIDTH 8 0
BBX 7 12 0 0
BITMAP
C6
C6
C6
C6
C6
C6
D6
D6
D6
FE
6C
6C
ENDCHAR
STARTCHAR 088
ENCODING 88
SWIDTH 360 0
DWIDTH 5 0
BBX 0 0 0 0
BITMAP
ENDCHAR
STARTCHAR 089
ENCODING 89
SWIDTH 360 0
DWIDTH 5 0
BBX 0 0 0 0
BITMAP
ENDCHAR
STARTCHAR 090
ENCODING 90
SWIDTH 360 0
DWIDTH 5 0
BBX 0 0 0 0
BITMAP
ENDCHAR
STARTCHAR 091
ENCODING 91
SWIDTH 360 0
DWIDTH 5 0
BBX 0 0 0 0
BITMAP
ENDCHAR
STARTCHAR 092
ENCODING 92
SWIDTH 360 0
DWIDTH 5 0
BBX 0 0 0 0
BITMAP
ENDCHAR
STARTCHAR 093
ENCODING 93
SWIDTH 360 0
DWIDTH 5 0
BBX 0 0 0 0
BITMAP
ENDCHAR
STARTCHAR 094
ENCODING 94
SWIDTH 360 0
DWIDTH 5 0
BBX 0 0 0 0
BITMAP
ENDCHAR
STARTCHAR 095
ENCODING 95
SWIDTH 360 0
DWIDTH 5 0
BBX 0 0 0 0
BITMAP
ENDCHAR
STARTCHAR 096
ENCODING 96
SWIDTH 360 0
DWIDTH 5 0
BBX 0 0 0 0
BITMAP
ENDCHAR
STARTCHAR 097
ENCODING 97
SWIDTH 360 0
DWIDTH 5 0
BBX 0 0 0 0
BITMAP
ENDCHAR
STARTCHAR 098
ENCODING 98
SWIDTH 360 0
DWIDTH 5 0
BBX 0 0 0 0
BITMAP
ENDCHAR
STARTCHAR 099
ENCODING 99
SWIDTH 360 0
DWIDTH 5 0
BBX 0 0 0 0
BITMAP
ENDCHAR
STARTCHAR 100
ENCODING 100
SWIDTH 360 0
DWIDTH 5 0
BBX 0 0 0 0
BITMAP
ENDCHAR
STARTCHAR 101
ENCODING 101
SWIDTH 360 0
DWIDTH 5 0
BBX 0 0 0 0
BITMAP
ENDCHAR
STARTCHAR 102
ENCODING 102
SWIDTH 360 0
DWIDTH 5 0
BBX 0 0 0 0
BITMAP
ENDCHAR
STARTCHAR 103
ENCODING 103
SWIDTH 360 0
DWIDTH 5 0
BBX 0 0 0 0
BITMAP
ENDCHAR
STARTCHAR 104
ENCODING 104
SWIDTH 360 0
DWIDTH 5 0
BBX 0 0 0 0
BITMAP
ENDCHAR
STARTCHAR 105
ENCODING 105
SWIDTH 360 0
DWIDTH 5 0
BBX 0 0 0 0
BITMAP
ENDCHAR
STARTCHAR 106
ENCODING 106
SWIDTH 360 0
DWIDTH 5 0
BBX 0 0 0 0
BITMAP
ENDCHAR
STARTCHAR 107
ENCODING 107
SWIDTH 360 0
DWIDTH 5 0
BBX 0 0 0 0
BITMAP
ENDCHAR
STARTCHAR 108
ENCODING 108
SWIDTH 360 0
DWIDTH 5 0
BBX 0 0 0 0
BITMAP
ENDCHAR
STARTCHAR 109
ENCODING 109
SWIDTH 360 0
DWIDTH 5 0
BBX 0 0 0 0
BITMAP
ENDCHAR
STARTCHAR 110
ENCODING 110
SWIDTH 360 0
DWIDTH 5 0
BBX 0 0 0 0
BITMAP
ENDCHAR
STARTCHAR 111
ENCODING 111
SWIDTH 360 0
DWIDTH 5 0
BBX 0 0 0 0
BITMAP
ENDCHAR
STARTCHAR 112
ENCODING 112
SWIDTH 360 0
DWIDTH 5 0
BBX 0 0 0 0
BITMAP
ENDCHAR
STARTCHAR 113
ENCODING 113
SWIDTH 360 0
DWIDTH 5 0
BBX 0 0 0 0
BITMAP
ENDCHAR
STARTCHAR 114
ENCODING 114
SWIDTH 360 0
DWIDTH 5 0
BBX 0 0 0 0
BITMAP
ENDCHAR
STARTCHAR 115
ENCODING 115
SWIDTH 360 0
DWIDTH 5 0
BBX 0 0 0 0
BITMAP
ENDCHAR
STARTCHAR 116
ENCODING 116
SWIDTH 360 0
DWIDTH 5 0
BBX 0 0 0 0
BITMAP
ENDCHAR
STARTCHAR 117
ENCODING 117
SWIDTH 360 0
DWIDTH 5 0
BBX 0 0 0 0
BITMAP
ENDCHAR
STARTCHAR 118
ENCODING 118
SWIDTH 360 0
DWIDTH 5 0
BBX 0 0 0 0
BITMAP
ENDCHAR
STARTCHAR 119
ENCODING 119
SWIDTH 360 0
DWIDTH 5 0
BBX 0 0 0 0
BITMAP
ENDCHAR
STARTCHAR 120
ENCODING 120
SWIDTH 360 0
DWIDTH 5 0
BBX 0 0 0 0
BITMAP
ENDCHAR
STARTCHAR 121
ENCODING 121
SWIDTH 360 0
DWIDTH 5 0
BBX 0 0 0 0
BITMAP
ENDCHAR
STARTCHAR 122
ENCODING 122
SWIDTH 360 0
DWIDTH 5 0
BBX 0 0 0 0
BITMAP
ENDCHAR
STARTCHAR 123
ENCODING 123
SWIDTH 360 0
DWIDTH 5 0
BBX 0 0 0 0
BITMAP
ENDCHAR
STARTCHAR 124
ENCODING 124
SWIDTH 360 0
DWIDTH 5 0
BBX 0 0 0 0
BITMAP
ENDCHAR
STARTCHAR 125
ENCODING 125
SWIDTH 360 0
DWIDTH 5 0
BBX 0 0 0 0
BITMAP
ENDCHAR
STARTCHAR 126
ENCODING 126
SWIDTH 360 0
DWIDTH 5 0
BBX 0 0 0 0
BITMAP
ENDCHAR
STARTCHAR 127
ENCODING 127
SWIDTH 360 0
DWIDTH 5 0
BBX 0 0 0 0
BITMAP
ENDCHAR
STARTCHAR 128
ENCODING 128
SWIDTH 360 0
DWIDTH 5 0
BBX 0 0 0 0
BITMAP
ENDCHAR
STARTCHAR 129
ENCODING 129
SWIDTH 360 0
DWIDTH 5 0
BBX 0 0 0 0
BITMAP
ENDCHAR
STARTCHAR 130
ENCODING 130
SWIDTH 360 0
DWIDTH 5 0
BBX 0 0 0 0
BITMAP
ENDCHAR
STARTCHAR 131
ENCODING 131
SWIDTH 360 0
DWIDTH 5 0
BBX 0 0 0 0
BITMAP
ENDCHAR
STARTCHAR 132
ENCODING 132
SWIDTH 360 0
DWIDTH 5 0
BBX 0 0 0 0
BITMAP
ENDCHAR
STARTCHAR 133
ENCODING 133
SWIDTH 360 0
DWIDTH 5 0
BBX 0 0 0 0
BITMAP
ENDCHAR
STARTCHAR 134
ENCODING 134
SWIDTH 360 0
DWIDTH 5 0
BBX 0 0 0 0
BITMAP
ENDCHAR
STARTCHAR 135
ENCODING 135
SWIDTH 360 0
DWIDTH 5 0
BBX 0 0 0 0
BITMAP
ENDCHAR
STARTCHAR 136
ENCODING 136
SWIDTH 360 0
DWIDTH 5 0
BBX 0 0 0 0
BITMAP
ENDCHAR
STARTCHAR 137
ENCODING 137
SWIDTH 360 0
DWIDTH 5 0
BBX 0 0 0 0
BITMAP
ENDCHAR
STARTCHAR 138
ENCODING 138
SWIDTH 360 0
DWIDTH 5 0
BBX 0 0 0 0
BITMAP
ENDCHAR
STARTCHAR 139
ENCODING 139
SWIDTH 360 0
DWIDTH 5 0
BBX 0 0 0 0
BITMAP
ENDCHAR
STARTCHAR 140
ENCODING 140
SWIDTH 360 0
DWIDTH 5 0
BBX 0 0 0 0
BITMAP
ENDCHAR
STARTCHAR 141
ENCODING 141
SWIDTH 360 0
DWIDTH 5 0
BBX 0 0 0 0
BITMAP
ENDCHAR
STARTCHAR 142
ENCODING 142
SWIDTH 360 0
DWIDTH 5 0
BBX 0 0 0 0
BITMAP
ENDCHAR
STARTCHAR 143
ENCODING 143
SWIDTH 360 0
DWIDTH 5 0
BBX 0 0 0 0
BITMAP
ENDCHAR
STARTCHAR 144
ENCODING 144
SWIDTH 360 0
DWIDTH 5 0
BBX 0 0 0 0
BITMAP
ENDCHAR
STARTCHAR 145
ENCODING 145
SWIDTH 360 0
DWIDTH 5 0
BBX 0 0 0 0
BITMAP
ENDCHAR
STARTCHAR 146
ENCODING 146
SWIDTH 360 0
DWIDTH 5 0
BBX 0 0 0 0
BITMAP
ENDCHAR
STARTCHAR 147
ENCODING 147
SWIDTH 360 0
DWIDTH 5 0
BBX 0 0 0 0
BITMAP
ENDCHAR
STARTCHAR 148
ENCODING 148
SWIDTH 360 0
DWIDTH 5 0
BBX 0 0 0 0
BITMAP
ENDCHAR
STARTCHAR 149
ENCODING 149
SWIDTH 360 0
DWIDTH 5 0
BBX 0 0 0 0
BITMAP
ENDCHAR
STARTCHAR 150
ENCODING 150
SWIDTH 360 0
DWIDTH 5 0
BBX 0 0 0 0
BITMAP
ENDCHAR
STARTCHAR 151
ENCODING 151
SWIDTH 360 0
DWIDTH 5 0
BBX 0 0 0 0
BITMAP
ENDCHAR
STARTCHAR 152
ENCODING 152
SWIDTH 360 0
DWIDTH 5 0
BBX 0 0 0 0
BITMAP
ENDCHAR
STARTCHAR 153
ENCODING 153
SWIDTH 360 0
DWIDTH 5 0
BBX 0 0 0 0
BITMAP
ENDCHAR
STARTCHAR 154
ENCODING 154
SWIDTH 360 0
DWIDTH 5 0
BBX 0 0 0 0
BITMAP
ENDCHAR
STARTCHAR 155
ENCODING 155
SWIDTH 360 0
DWIDTH 5 0
BBX 0 0 0 0
BITMAP
ENDCHAR
STARTCHAR 156
ENCODING 156
SWIDTH 360 0
DWIDTH 5 0
BBX 0 0 0 0
BITMAP
ENDCHAR
STARTCHAR 157
ENCODING 157
SWIDTH 360 0
DWIDTH 5 0
BBX 0 0 0 0
BITMAP
ENDCHAR
STARTCHAR 158
ENCODING 158
SWIDTH 360 0
DWIDTH 5 0
BBX 0 0 0 0
BITMAP
ENDCHAR
STARTCHAR 159
ENCODING 159
SWIDTH 360 0
DWIDTH 5 0
BBX 0 0 0 0
BITMAP
ENDCHAR
ENDFONT
